<svg width="30" height="30" viewBox="0 0 30 30" fill="none" xmlns="http://www.w3.org/2000/svg">
<path d="M13.8438 20.7765H16.1563V16.0625H20.8703V13.75H16.1563V9.03596H13.8438V13.75H9.12977V16.0625H13.8438V20.7765ZM15 29.552C14.6285 29.552 14.2737 29.4862 13.9355 29.3547C13.5976 29.2234 13.2924 29.0183 13.0198 28.7396L1.21411 16.9104C0.951256 16.6218 0.742233 16.3086 0.587039 15.9707C0.431845 15.6326 0.354248 15.2778 0.354248 14.9062C0.354248 14.5444 0.431845 14.1922 0.587039 13.8494C0.742233 13.5064 0.951256 13.2035 1.21411 12.9406L13.0198 1.11144C13.3083 0.822887 13.6176 0.608852 13.9475 0.469332C14.2776 0.330068 14.6285 0.260437 15 0.260437C15.3618 0.260437 15.7181 0.330068 16.0688 0.469332C16.4195 0.608852 16.7263 0.822887 16.9892 1.11144L28.7713 12.9406C29.0439 13.2194 29.2578 13.5262 29.413 13.861C29.5682 14.196 29.6458 14.5444 29.6458 14.9062C29.6458 15.2778 29.5722 15.6326 29.425 15.9707C29.2778 16.3086 29.0599 16.6218 28.7713 16.9104L16.9892 28.7396C16.7263 29.0024 16.4195 29.2036 16.0688 29.3431C15.7181 29.4824 15.3618 29.552 15 29.552ZM15.3558 27.0911L27.1464 15.277C27.2356 15.1878 27.2801 15.0667 27.2801 14.9135C27.2801 14.7604 27.2356 14.6394 27.1464 14.5505L15.3558 2.73596C15.2669 2.64706 15.1459 2.60261 14.9927 2.60261C14.8396 2.60261 14.7184 2.64706 14.6293 2.73596L2.83864 14.5505C2.7595 14.6394 2.71993 14.7604 2.71993 14.9135C2.71993 15.0667 2.7595 15.1878 2.83864 15.277L14.6293 27.0911C14.7184 27.1703 14.8396 27.2098 14.9927 27.2098C15.1459 27.2098 15.2669 27.1703 15.3558 27.0911Z" fill="white"/>
</svg>
