<svg width="24" height="24" viewBox="0 0 24 24" fill="none" xmlns="http://www.w3.org/2000/svg">
<mask id="mask0_120_3650" style="mask-type:alpha" maskUnits="userSpaceOnUse" x="0" y="0" width="24" height="24">
<rect width="24" height="24" fill="#D9D9D9"/>
</mask>
<g mask="url(#mask0_120_3650)">
<path d="M20.15 7.4615C20.15 6.17433 19.7032 5.084 18.8095 4.1905C17.916 3.29683 16.8257 2.85 15.5385 2.85V2C17.0513 2 18.3398 2.53208 19.4038 3.59625C20.4679 4.66025 21 5.94867 21 7.4615H20.15ZM17.5 7.4615C17.5 6.92433 17.3073 6.46317 16.922 6.078C16.5368 5.69267 16.0757 5.5 15.5385 5.5V4.65C16.327 4.65 16.9908 4.9205 17.5297 5.4615C18.0689 6.0025 18.3423 6.66917 18.35 7.4615H17.5ZM4.6155 20C4.15517 20 3.77083 19.8458 3.4625 19.5375C3.15417 19.2292 3 18.8448 3 18.3845V7.6155C3 7.15517 3.15417 6.77083 3.4625 6.4625C3.77083 6.15417 4.15517 6 4.6155 6H7.573L9.423 4H14.5385V5H9.85575L8.0115 7H4.6155C4.436 7 4.2885 7.05767 4.173 7.173C4.05767 7.2885 4 7.436 4 7.6155V18.3845C4 18.564 4.05767 18.7115 4.173 18.827C4.2885 18.9423 4.436 19 4.6155 19H19.3845C19.564 19 19.7115 18.9423 19.827 18.827C19.9423 18.7115 20 18.564 20 18.3845V8.4615H21V18.3845C21 18.8448 20.8458 19.2292 20.5375 19.5375C20.2292 19.8458 19.8448 20 19.3845 20H4.6155ZM12 16.7308C13.0448 16.7308 13.9278 16.3702 14.649 15.649C15.3702 14.9278 15.7308 14.0448 15.7308 13C15.7308 11.9552 15.3702 11.0722 14.649 10.351C13.9278 9.62983 13.0448 9.26925 12 9.26925C10.9552 9.26925 10.0722 9.62983 9.351 10.351C8.62983 11.0722 8.26925 11.9552 8.26925 13C8.26925 14.0448 8.62983 14.9278 9.351 15.649C10.0722 16.3702 10.9552 16.7308 12 16.7308ZM12 15.7308C11.223 15.7308 10.5737 15.4698 10.052 14.948C9.53017 14.4263 9.26925 13.777 9.26925 13C9.26925 12.223 9.53017 11.5737 10.052 11.052C10.5737 10.5302 11.223 10.2693 12 10.2693C12.777 10.2693 13.4263 10.5302 13.948 11.052C14.4698 11.5737 14.7308 12.223 14.7308 13C14.7308 13.777 14.4698 14.4263 13.948 14.948C13.4263 15.4698 12.777 15.7308 12 15.7308Z" fill="white"/>
</g>
</svg>
