<svg width="26" height="20" viewBox="0 0 26 20" fill="none" xmlns="http://www.w3.org/2000/svg">
<path d="M25.75 2.37194V17.628C25.75 18.2802 25.5316 18.8246 25.0948 19.2614C24.658 19.6982 24.1135 19.9166 23.4614 19.9166H2.53862C1.88649 19.9166 1.34201 19.6982 0.905208 19.2614C0.468403 18.8246 0.25 18.2802 0.25 17.628V2.37194C0.25 1.7198 0.468403 1.17533 0.905208 0.738521C1.34201 0.301716 1.88649 0.083313 2.53862 0.083313H23.4614C24.1135 0.083313 24.658 0.301716 25.0948 0.738521C25.5316 1.17533 25.75 1.7198 25.75 2.37194ZM1.66667 5.47763H24.3333V2.37194C24.3333 2.15377 24.2425 1.9539 24.061 1.77233C23.8794 1.59076 23.6795 1.49998 23.4614 1.49998H2.53862C2.32046 1.49998 2.12059 1.59076 1.93902 1.77233C1.75745 1.9539 1.66667 2.15377 1.66667 2.37194V5.47763ZM1.66667 8.85567V17.628C1.66667 17.8462 1.75745 18.0461 1.93902 18.2276C2.12059 18.4092 2.32046 18.5 2.53862 18.5H23.4614C23.6795 18.5 23.8794 18.4092 24.061 18.2276C24.2425 18.0461 24.3333 17.8462 24.3333 17.628V8.85567H1.66667Z" fill="white"/>
</svg>
