<svg xmlns="http://www.w3.org/2000/svg" width="20" height="16" viewBox="0 0 20 16" fill="none">
<path d="M5.702 15.5C4.81767 15.5 4.06292 15.1875 3.43775 14.5625C2.81258 13.9377 2.5 13.1833 2.5 12.2993C2.5 11.4151 2.81258 10.6602 3.43775 10.0345C4.06292 9.409 4.81767 9.09625 5.702 9.09625H16.298C17.1823 9.09625 17.9371 9.40867 18.5623 10.0335C19.1874 10.6585 19.5 11.413 19.5 12.297C19.5 13.181 19.1874 13.9358 18.5623 14.5615C17.9371 15.1872 17.1823 15.5 16.298 15.5H5.702ZM5.702 14H16.298C16.7708 14 17.1727 13.8343 17.5035 13.503C17.8345 13.1718 18 12.7696 18 12.2963C18 11.8231 17.8345 11.4214 17.5035 11.0913C17.1727 10.7611 16.7708 10.596 16.298 10.596H5.702C5.22917 10.596 4.82733 10.7617 4.4965 11.093C4.1655 11.4243 4 11.8266 4 12.2998C4 12.7729 4.1655 13.1746 4.4965 13.5048C4.82733 13.8349 5.22917 14 5.702 14ZM3.702 6.90375C2.81767 6.90375 2.06292 6.59133 1.43775 5.9665C0.812583 5.3415 0.5 4.587 0.5 3.703C0.5 2.819 0.812583 2.06417 1.43775 1.4385C2.06292 0.812833 2.81767 0.5 3.702 0.5H14.298C15.1823 0.5 15.9371 0.8125 16.5623 1.4375C17.1874 2.06233 17.5 2.81675 17.5 3.70075C17.5 4.58492 17.1874 5.33983 16.5623 5.9655C15.9371 6.591 15.1823 6.90375 14.298 6.90375H3.702ZM3.69225 5.404H14.298C14.7708 5.404 15.1727 5.23833 15.5035 4.907C15.8345 4.57567 16 4.17342 16 3.70025C16 3.22708 15.8345 2.82542 15.5035 2.49525C15.1727 2.16508 14.7708 2 14.298 2H3.69225C3.22225 2 2.82267 2.16567 2.4935 2.497C2.1645 2.82817 2 3.23042 2 3.70375C2 4.17692 2.1645 4.57858 2.4935 4.90875C2.82267 5.23892 3.22225 5.404 3.69225 5.404Z" fill="#05611D"></path>
</svg>