<svg width="18" height="22" viewBox="0 0 18 22" fill="none" xmlns="http://www.w3.org/2000/svg">
<path d="M9 14.9165C9.2479 14.9165 9.45572 14.8328 9.62346 14.6652C9.79119 14.4975 9.87506 14.2897 9.87506 14.0418C9.87506 13.7938 9.79119 13.586 9.62346 13.4183C9.45572 13.2506 9.2479 13.1667 9 13.1667C8.7521 13.1667 8.54428 13.2506 8.37654 13.4183C8.20881 13.586 8.12494 13.7938 8.12494 14.0418C8.12494 14.2897 8.20881 14.4975 8.37654 14.6652C8.54428 14.8328 8.7521 14.9165 9 14.9165ZM8.1875 11.2291H9.8125V6.00017H8.1875V11.2291ZM9 21.2708C6.65693 20.6318 4.71704 19.2527 3.18033 17.1333C1.64344 15.014 0.875 12.6445 0.875 10.025V3.79179L9 0.750061L17.125 3.79179V10.025C17.125 12.6445 16.3566 15.014 14.8197 17.1333C13.283 19.2527 11.3431 20.6318 9 21.2708ZM9 19.5584C10.8778 18.9625 12.4306 17.7709 13.6583 15.9834C14.8861 14.1959 15.5 12.2097 15.5 10.025V4.90627L9 2.47906L2.5 4.90627V10.025C2.5 12.2097 3.11389 14.1959 4.34167 15.9834C5.56944 17.7709 7.12222 18.9625 9 19.5584Z" fill="white"/>
</svg>
