<svg width="20" height="20" viewBox="0 0 20 20" fill="none" xmlns="http://www.w3.org/2000/svg">
<path d="M6.24988 19.2083H2.7499C2.20264 19.2083 1.73942 19.0187 1.36025 18.6395C0.981087 18.2604 0.791504 17.7972 0.791504 17.2499V9.99996C0.791504 8.72217 1.03318 7.52499 1.51652 6.40844C1.99987 5.2917 2.65682 4.31806 3.48738 3.4875C4.31793 2.65694 5.29158 1.99999 6.40832 1.51665C7.52487 1.0333 8.72204 0.791626 9.99984 0.791626C11.2776 0.791626 12.4748 1.0333 13.5914 1.51665C14.7081 1.99999 15.6817 2.65694 16.5123 3.4875C17.3428 4.31806 17.9998 5.2917 18.4831 6.40844C18.9665 7.52499 19.2082 8.72217 19.2082 9.99996V17.2499C19.2082 17.7972 19.0186 18.2604 18.6394 18.6395C18.2603 19.0187 17.797 19.2083 17.2498 19.2083H13.7498V11.5415H17.5832V9.99996C17.5832 7.88746 16.8474 6.09545 15.3759 4.62392C13.9044 3.15239 12.1123 2.41663 9.99984 2.41663C7.88734 2.41663 6.09532 3.15239 4.6238 4.62392C3.15227 6.09545 2.4165 7.88746 2.4165 9.99996V11.5415H6.24988V19.2083ZM4.62488 13.1665H2.4165V17.2499C2.4165 17.3333 2.45126 17.4097 2.52077 17.479C2.59011 17.5485 2.66648 17.5833 2.7499 17.5833H4.62488V13.1665ZM15.3748 13.1665V17.5833H17.2498C17.3332 17.5833 17.4096 17.5485 17.4789 17.479C17.5484 17.4097 17.5832 17.3333 17.5832 17.2499V13.1665H15.3748Z" fill="white"/>
</svg>
