<svg width="22" height="22" viewBox="0 0 22 22" fill="none" xmlns="http://www.w3.org/2000/svg">
<path d="M10.9882 17.0832C11.2975 17.0832 11.5588 16.9765 11.772 16.763C11.9853 16.5494 12.0919 16.2879 12.0919 15.9784C12.0919 15.6691 11.9851 15.4079 11.7715 15.1946C11.5579 14.9816 11.2965 14.8751 10.9872 14.8751C10.6779 14.8751 10.4166 14.9819 10.2034 15.1955C9.99014 15.4091 9.88352 15.6705 9.88352 15.9798C9.88352 16.2891 9.99032 16.5503 10.2039 16.7636C10.4175 16.9766 10.679 17.0832 10.9882 17.0832ZM10.221 13.204H11.746C11.7599 12.6708 11.838 12.2448 11.9803 11.926C12.1228 11.6073 12.4683 11.1848 13.0168 10.6585C13.4933 10.182 13.8582 9.74196 14.1115 9.33842C14.365 8.93506 14.4917 8.45866 14.4917 7.90923C14.4917 6.97666 14.1567 6.24821 13.4867 5.72388C12.8165 5.19972 12.0237 4.93765 11.1085 4.93765C10.2043 4.93765 9.45605 5.17896 8.86383 5.66158C8.27143 6.14421 7.84884 6.7126 7.59606 7.36675L8.9876 7.92494C9.11959 7.56527 9.34528 7.2149 9.66468 6.87384C9.98409 6.53295 10.4584 6.3625 11.0876 6.3625C11.7279 6.3625 12.2011 6.53782 12.5074 6.88846C12.8138 7.23928 12.967 7.62504 12.967 8.04573C12.967 8.41388 12.8621 8.75071 12.6522 9.05621C12.4426 9.36171 12.1753 9.65683 11.8503 9.94156C11.1391 10.5833 10.6898 11.0951 10.5024 11.4772C10.3148 11.8591 10.221 12.4347 10.221 13.204ZM11.0021 21.2916C9.57856 21.2916 8.24055 21.0215 6.98804 20.4813C5.73552 19.9411 4.64605 19.2079 3.71962 18.2819C2.79319 17.3558 2.05968 16.2668 1.5191 15.0148C0.978697 13.7628 0.708496 12.4252 0.708496 11.0019C0.708496 9.57838 0.978607 8.24037 1.51883 6.98785C2.05905 5.73534 2.7922 4.64587 3.71827 3.71944C4.64434 2.79301 5.73336 2.0595 6.98533 1.51892C8.2373 0.978514 9.57495 0.708313 10.9983 0.708313C12.4218 0.708313 13.7598 0.978424 15.0123 1.51865C16.2648 2.05887 17.3543 2.79201 18.2807 3.71808C19.2071 4.64415 19.9406 5.73317 20.4812 6.98515C21.0216 8.23712 21.2918 9.57476 21.2918 10.9981C21.2918 12.4216 21.0217 13.7596 20.4815 15.0121C19.9413 16.2646 19.2081 17.3541 18.2821 18.2805C17.356 19.207 16.267 19.9405 15.015 20.481C13.763 21.0214 12.4254 21.2916 11.0021 21.2916ZM11.0002 19.6666C13.4196 19.6666 15.4689 18.8271 17.1481 17.1479C18.8272 15.4687 19.6668 13.4194 19.6668 11C19.6668 8.58054 18.8272 6.53123 17.1481 4.85206C15.4689 3.1729 13.4196 2.33331 11.0002 2.33331C8.58072 2.33331 6.53141 3.1729 4.85225 4.85206C3.17308 6.53123 2.3335 8.58054 2.3335 11C2.3335 13.4194 3.17308 15.4687 4.85225 17.1479C6.53141 18.8271 8.58072 19.6666 11.0002 19.6666Z" fill="white"/>
</svg>
