<svg width="22" height="21" viewBox="0 0 22 21" fill="none" xmlns="http://www.w3.org/2000/svg">
<path d="M6.53141 5.30848L9.46047 1.46454C9.65493 1.20436 9.88587 1.01333 10.1533 0.891458C10.4207 0.769402 10.703 0.708374 11.0002 0.708374C11.2974 0.708374 11.5797 0.769402 11.8471 0.891458C12.1145 1.01333 12.3454 1.20436 12.5399 1.46454L15.4689 5.30848L19.948 6.82081C20.3759 6.9584 20.7095 7.20097 20.949 7.54854C21.1886 7.89629 21.3083 8.28033 21.3083 8.70067C21.3083 8.89476 21.28 9.08823 21.2233 9.28106C21.1666 9.4739 21.0735 9.65869 20.9438 9.83546L18.0272 13.8833L18.1355 18.1793C18.1536 18.7497 17.9655 19.2304 17.5714 19.6215C17.1774 20.0127 16.7183 20.2084 16.1939 20.2084C16.1786 20.2084 15.9973 20.1847 15.6501 20.1374L11.0002 18.8041L6.35023 20.1374C6.25995 20.1735 6.16678 20.1944 6.07073 20.2C5.97467 20.2056 5.88656 20.2084 5.80639 20.2084C5.27718 20.2084 4.81677 20.0127 4.42514 19.6215C4.03352 19.2304 3.84673 18.7497 3.86479 18.1793L3.97312 13.8562L1.07304 9.83546C0.943399 9.65797 0.850232 9.47245 0.793538 9.2789C0.736843 9.08516 0.708496 8.89151 0.708496 8.69796C0.708496 8.28936 0.827482 7.90938 1.06545 7.55802C1.30343 7.20666 1.63583 6.95749 2.06266 6.81052L6.53141 5.30848ZM7.53566 6.70842L2.58348 8.35833C2.47929 8.393 2.40816 8.46423 2.37006 8.57202C2.33178 8.67963 2.3474 8.77858 2.41691 8.86885L5.60841 13.3731L5.48979 18.2126C5.48275 18.3307 5.52436 18.4244 5.61464 18.4937C5.70492 18.5632 5.80567 18.5807 5.91689 18.546L11.0002 17.1187L16.0834 18.5731C16.1947 18.6077 16.2954 18.5903 16.3857 18.5208C16.476 18.4515 16.5176 18.3578 16.5105 18.2397L16.3919 13.3731L19.5834 8.92302C19.6529 8.83274 19.6685 8.7338 19.6303 8.62619C19.5922 8.51839 19.521 8.44717 19.4169 8.4125L14.4647 6.70842L11.2607 2.47935C11.1981 2.3889 11.1112 2.34367 11.0002 2.34367C10.8891 2.34367 10.8023 2.3889 10.7396 2.47935L7.53566 6.70842Z" fill="white"/>
</svg>
