<svg width="35" height="35" viewBox="0 0 35 35" fill="none" xmlns="http://www.w3.org/2000/svg">
<circle cx="17.5" cy="17.5" r="17.5" fill="#FB7805"/>
<mask id="mask0_2001_587" style="mask-type:alpha" maskUnits="userSpaceOnUse" x="6" y="6" width="24" height="24">
<rect x="6" y="6" width="24" height="24" fill="#D9D9D9"/>
</mask>
<g mask="url(#mask0_2001_587)">
<path d="M26.15 13.4615C26.15 12.1743 25.7032 11.084 24.8095 10.1905C23.916 9.29683 22.8257 8.85 21.5385 8.85V8C23.0513 8 24.3398 8.53208 25.4038 9.59625C26.4679 10.6602 27 11.9487 27 13.4615H26.15ZM23.5 13.4615C23.5 12.9243 23.3073 12.4632 22.922 12.078C22.5368 11.6927 22.0757 11.5 21.5385 11.5V10.65C22.327 10.65 22.9908 10.9205 23.5297 11.4615C24.0689 12.0025 24.3423 12.6692 24.35 13.4615H23.5ZM10.6155 26C10.1552 26 9.77083 25.8458 9.4625 25.5375C9.15417 25.2292 9 24.8448 9 24.3845V13.6155C9 13.1552 9.15417 12.7708 9.4625 12.4625C9.77083 12.1542 10.1552 12 10.6155 12H13.573L15.423 10H20.5385V11H15.8558L14.0115 13H10.6155C10.436 13 10.2885 13.0577 10.173 13.173C10.0577 13.2885 10 13.436 10 13.6155V24.3845C10 24.564 10.0577 24.7115 10.173 24.827C10.2885 24.9423 10.436 25 10.6155 25H25.3845C25.564 25 25.7115 24.9423 25.827 24.827C25.9423 24.7115 26 24.564 26 24.3845V14.4615H27V24.3845C27 24.8448 26.8458 25.2292 26.5375 25.5375C26.2292 25.8458 25.8448 26 25.3845 26H10.6155ZM18 22.7308C19.0448 22.7308 19.9278 22.3702 20.649 21.649C21.3702 20.9278 21.7308 20.0448 21.7308 19C21.7308 17.9552 21.3702 17.0722 20.649 16.351C19.9278 15.6298 19.0448 15.2693 18 15.2693C16.9552 15.2693 16.0722 15.6298 15.351 16.351C14.6298 17.0722 14.2692 17.9552 14.2692 19C14.2692 20.0448 14.6298 20.9278 15.351 21.649C16.0722 22.3702 16.9552 22.7308 18 22.7308ZM18 21.7308C17.223 21.7308 16.5737 21.4698 16.052 20.948C15.5302 20.4263 15.2692 19.777 15.2692 19C15.2692 18.223 15.5302 17.5737 16.052 17.052C16.5737 16.5302 17.223 16.2693 18 16.2693C18.777 16.2693 19.4263 16.5302 19.948 17.052C20.4698 17.5737 20.7308 18.223 20.7308 19C20.7308 19.777 20.4698 20.4263 19.948 20.948C19.4263 21.4698 18.777 21.7308 18 21.7308Z" fill="white"/>
</g>
</svg>
