<svg xmlns="http://www.w3.org/2000/svg" width="24" height="24" viewBox="0 0 24 24" fill="none">
<mask id="mask0_447_87" style="mask-type:alpha" maskUnits="userSpaceOnUse" x="0" y="0" width="24" height="24">
<rect width="24" height="24" fill="#05611D"/>
</mask>
<g mask="url(#mask0_447_87)">
<path d="M15.3 16.3443L11.25 12.2943V7.25001H12.75V11.7058L16.3443 15.3L15.3 16.3443ZM3.39801 16.0463C3.14934 15.5308 2.95351 14.9954 2.81051 14.4403C2.66768 13.8853 2.57443 13.3218 2.53076 12.75H4.04626C4.08976 13.1897 4.16859 13.623 4.28276 14.05C4.39676 14.477 4.54609 14.8924 4.73076 15.2963L3.39801 16.0463ZM2.53076 11.25C2.57443 10.6782 2.66935 10.1122 2.81551 9.55201C2.96168 8.99168 3.16418 8.4506 3.42301 7.92876L4.73076 8.67876C4.53976 9.0826 4.38884 9.4996 4.27801 9.92976C4.16701 10.3599 4.08976 10.8 4.04626 11.25H2.53076ZM6.63651 19.8423C6.14818 19.5026 5.69626 19.1241 5.28076 18.7068C4.86543 18.2894 4.48784 17.8365 4.14801 17.348L5.45576 16.5885C5.7211 16.9653 6.01501 17.315 6.33751 17.6375C6.66001 17.96 7.00968 18.2539 7.38651 18.5193L6.63651 19.8423ZM5.48076 7.38651L4.14801 6.63651C4.48784 6.14818 4.86543 5.69784 5.28076 5.28551C5.69626 4.87335 6.14818 4.49743 6.63651 4.15776L7.38651 5.48076C7.01984 5.7461 6.67693 6.03843 6.35776 6.35776C6.03843 6.67693 5.74609 7.01985 5.48076 7.38651ZM11.25 21.4693C10.6782 21.4256 10.1122 21.3307 9.55201 21.1845C8.99168 21.0383 8.45059 20.8358 7.92876 20.577L8.67876 19.2693C9.08259 19.4603 9.49959 19.6112 9.92976 19.722C10.3599 19.833 10.8 19.9103 11.25 19.9538V21.4693ZM8.67876 4.73076L7.92876 3.42301C8.45059 3.16418 8.99168 2.96168 9.55201 2.81551C10.1122 2.66935 10.6782 2.57443 11.25 2.53076V4.04626C10.8 4.08976 10.3599 4.16701 9.92976 4.27801C9.49959 4.38885 9.08259 4.53976 8.67876 4.73076ZM12.75 21.4693V19.9538C13.2 19.9103 13.6401 19.833 14.0703 19.722C14.5004 19.6112 14.9174 19.4603 15.3213 19.2693L16.0713 20.577C15.5494 20.8358 15.0083 21.0383 14.448 21.1845C13.8878 21.3307 13.3218 21.4256 12.75 21.4693ZM15.3213 4.73076C14.9174 4.53976 14.5004 4.38885 14.0703 4.27801C13.6401 4.16701 13.2 4.08976 12.75 4.04626V2.53076C13.3218 2.57443 13.8878 2.66935 14.448 2.81551C15.0083 2.96168 15.5494 3.16418 16.0713 3.42301L15.3213 4.73076ZM17.3635 19.8423L16.6135 18.5193C16.9802 18.2539 17.3231 17.9616 17.6423 17.6423C17.9616 17.3231 18.2539 16.9802 18.5193 16.6135L19.8423 17.3635C19.5026 17.8518 19.1267 18.3047 18.7145 18.722C18.3022 19.1393 17.8518 19.5128 17.3635 19.8423ZM18.5193 7.37701C18.2539 7.01035 17.9616 6.66901 17.6423 6.35301C17.3231 6.03685 16.9802 5.7461 16.6135 5.48076L17.3635 4.15776C17.8518 4.48726 18.3022 4.85651 18.7145 5.26551C19.1267 5.67451 19.4975 6.12318 19.827 6.61151L18.5193 7.37701ZM19.9538 11.25C19.9103 10.8 19.8314 10.3599 19.7173 9.92976C19.6033 9.4996 19.4507 9.07943 19.2595 8.66926L20.577 7.90376C20.8257 8.43593 21.0257 8.9821 21.177 9.54226C21.3282 10.1026 21.4256 10.6718 21.4693 11.25H19.9538ZM20.577 16.0713L19.2693 15.3213C19.4603 14.9174 19.6112 14.5004 19.722 14.0703C19.833 13.6401 19.9103 13.2 19.9538 12.75H21.4693C21.4256 13.3218 21.3307 13.8878 21.1845 14.448C21.0383 15.0083 20.8358 15.5494 20.577 16.0713Z" fill="#05611D"/>
</g>
</svg>