<svg width="25" height="25" viewBox="0 0 25 25" fill="none" xmlns="http://www.w3.org/2000/svg">
<path d="M7.84984 18.5111L12.4998 13.8611L17.1498 18.5111L18.5109 17.15L13.8609 12.5L18.5109 7.84999L17.1498 6.4889L12.4998 11.1389L7.84984 6.4889L6.48874 7.84999L11.1387 12.5L6.48874 17.15L7.84984 18.5111ZM12.5021 24.7708C10.8048 24.7708 9.20953 24.4488 7.71615 23.8047C6.22277 23.1605 4.92378 22.2864 3.81919 21.1822C2.7146 20.0781 1.84003 18.7796 1.19549 17.2869C0.551167 15.7942 0.229004 14.1993 0.229004 12.5022C0.229004 10.805 0.551059 9.20968 1.19517 7.7163C1.83928 6.22292 2.71342 4.92393 3.81758 3.81934C4.92174 2.71475 6.22018 1.84019 7.71292 1.19565C9.20566 0.551319 10.8005 0.229156 12.4976 0.229156C14.1948 0.229156 15.7901 0.551212 17.2835 1.19532C18.7769 1.83943 20.0759 2.71357 21.1805 3.81773C22.2851 4.92189 23.1596 6.22034 23.8042 7.71307C24.4485 9.20581 24.7707 10.8007 24.7707 12.4977C24.7707 14.195 24.4486 15.7903 23.8045 17.2837C23.1604 18.7771 22.2863 20.076 21.1821 21.1806C20.0779 22.2852 18.7795 23.1598 17.2868 23.8043C15.794 24.4487 14.1991 24.7708 12.5021 24.7708ZM12.4998 22.8333C15.3846 22.8333 17.828 21.8323 19.83 19.8302C21.8321 17.8281 22.8332 15.3847 22.8332 12.5C22.8332 9.61527 21.8321 7.17186 19.83 5.16978C17.828 3.1677 15.3846 2.16666 12.4998 2.16666C9.61512 2.16666 7.17171 3.1677 5.16963 5.16978C3.16755 7.17186 2.1665 9.61527 2.1665 12.5C2.1665 15.3847 3.16755 17.8281 5.16963 19.8302C7.17171 21.8323 9.61512 22.8333 12.4998 22.8333Z" fill="#FF0000"/>
</svg>
