<svg width="24" height="24" viewBox="0 0 24 24" fill="none" xmlns="http://www.w3.org/2000/svg">
<path d="M11.9998 23.3333C10.4288 23.3333 8.95625 23.0377 7.58232 22.4465C6.20838 21.8552 5.00788 21.0461 3.9808 20.019C2.95371 18.9919 2.14456 17.7914 1.55334 16.4175C0.962115 15.0436 0.666504 13.571 0.666504 12C0.666504 10.4289 0.962115 8.95637 1.55334 7.58244C2.14456 6.20851 2.95371 5.008 3.9808 3.98092C5.00788 2.95383 6.20838 2.14468 7.58232 1.55346C8.95625 0.962236 10.4288 0.666626 11.9998 0.666626V2.08329C9.23734 2.08329 6.89393 3.04545 4.96963 4.96975C3.04532 6.89406 2.08317 9.23746 2.08317 12C2.08317 14.7625 3.04532 17.1059 4.96963 19.0302C6.89393 20.9545 9.23734 21.9166 11.9998 21.9166V23.3333ZM17.6665 18.0753L16.6639 17.0645L21.0474 12.7083H8.45817V11.2916H21.0201L16.6639 6.89996L17.6665 5.92458L23.7419 12L17.6665 18.0753Z" fill="white"/>
</svg>
