<?xml version="1.0" encoding="UTF-8"?>
<svg version="1.1" xmlns="http://www.w3.org/2000/svg" width="1024" height="1024">
<path d="M0 0 C337.92 0 675.84 0 1024 0 C1024 337.92 1024 675.84 1024 1024 C686.08 1024 348.16 1024 0 1024 C0 686.08 0 348.16 0 0 Z " fill="#F8F5F4" transform="translate(0,0)"/>
<path d="M0 0 C1.31218506 -0.01475121 1.31218506 -0.01475121 2.65087891 -0.02980042 C3.60269043 -0.02013245 4.55450195 -0.01046448 5.53515625 -0.00050354 C7.04795166 -0.00860802 7.04795166 -0.00860802 8.59130859 -0.01687622 C11.92705577 -0.02938971 15.2619443 -0.01285445 18.59765625 0.00511169 C20.91406296 0.00495677 23.23046994 0.00346885 25.546875 0.0007019 C30.40246026 -0.00068327 35.25775056 0.01189615 40.11328125 0.03465271 C46.34121577 0.06303734 52.56866006 0.06030143 58.79663086 0.0475626 C63.58012081 0.04061184 68.3634972 0.04838787 73.14697266 0.06081963 C75.44351771 0.06533997 77.74007492 0.06566585 80.03662109 0.06175423 C83.2447209 0.058848 86.45214212 0.07532153 89.66015625 0.09715271 C91.08787354 0.09040024 91.08787354 0.09040024 92.54443359 0.08351135 C98.93720848 0.15589225 98.93720848 0.15589225 102.15625 1.83895874 C105.38916996 5.5672002 104.73594087 10.09735631 104.72070408 14.74150372 C104.72185792 15.59590559 104.72301177 16.45030746 104.72420058 17.33060029 C104.72686612 20.21900539 104.72234556 23.10735574 104.71791077 25.99575806 C104.71834648 28.07724674 104.71922139 30.15873537 104.72049993 32.24022371 C104.72274485 37.97984581 104.71872364 43.71944939 104.71372187 49.45906913 C104.70941752 55.64107824 104.71086378 61.82308625 104.71162415 68.00509644 C104.71214939 78.72244741 104.70903732 89.4397917 104.70338631 100.15714073 C104.6974734 111.39995032 104.69362119 122.64275749 104.69253349 133.88556862 C104.69246475 134.58408118 104.69239601 135.28259373 104.69232519 136.00227334 C104.69198687 139.5495291 104.69168548 143.09678486 104.69139832 146.64404062 C104.68929677 171.78254708 104.68255624 196.92105038 104.6730957 222.05955505 C104.66391435 246.48435957 104.65682923 270.90916322 104.65258789 295.33396912 C104.65245636 296.08657872 104.65232484 296.83918832 104.65218933 297.61460427 C104.65087083 305.17247897 104.64959501 312.73035367 104.64835047 320.28822838 C104.64581412 335.68509256 104.64299286 351.0819567 104.63999939 366.4788208 C104.6398621 367.18677535 104.63972481 367.8947299 104.63958336 368.62413761 C104.63037953 415.9164949 104.6145132 463.20885033 104.59765625 510.50120544 C105.80309859 510.48320703 105.80309859 510.48320703 107.0328933 510.464845 C114.71173704 510.35026943 122.39058688 510.23611462 130.06944341 510.12239989 C134.01453332 510.06396382 137.95962092 510.0053808 141.90470314 509.94642735 C187.93819984 509.25882926 187.93819984 509.25882926 207.30517578 509.20603943 C210.1946838 509.19671347 213.08377998 509.17469435 215.97314453 509.14451599 C219.65665339 509.10621558 223.33977143 509.08731224 227.02347183 509.08275795 C229.01222772 509.07569966 231.00088706 509.04942427 232.98947144 509.02236938 C243.89149789 509.04936403 243.89149789 509.04936403 248.59765625 513.50120544 C250.24214466 516.79018226 250.23896735 519.95925381 249.59765625 523.50120544 C248.47973633 525.57810974 248.47973633 525.57810974 246.9921875 527.70042419 C246.4463501 528.48473816 245.9005127 529.26905212 245.33813477 530.07713318 C244.76377686 530.87707703 244.18941895 531.67702087 243.59765625 532.50120544 C243.05488037 533.25925476 242.51210449 534.01730408 241.95288086 534.79832458 C240.26603414 537.12730477 238.56052862 539.44130741 236.84765625 541.75120544 C236.23277344 542.58329529 235.61789062 543.41538513 234.984375 544.27268982 C230.7896899 549.93420113 226.51631425 555.52632412 222.19921875 561.09495544 C219.05650051 565.18073411 216.01959772 569.34382308 212.97265625 573.50120544 C207.92090654 580.3919693 202.79111468 587.21664768 197.59765625 594.00120544 C191.85388693 601.50681207 186.19559648 609.0680829 180.60546875 616.68870544 C176.48387833 622.30648965 172.31746846 627.88833404 168.12695312 633.45481873 C164.33017915 638.50592877 160.58506426 643.59357332 156.84765625 648.68870544 C151.15767363 656.44230574 145.34332816 664.09422782 139.49365234 671.72776794 C135.22475677 677.31629064 131.06027982 682.96653383 126.97265625 688.68870544 C122.11139334 695.49147736 117.05731371 702.11291649 111.89355469 708.68821716 C107.7383498 713.99407652 103.70163713 719.37465666 99.72265625 724.81370544 C94.05049901 732.56658769 88.26667226 740.22698571 82.43164062 747.8578949 C78.33368832 753.21825193 74.26217774 758.59669532 70.22265625 764.00120544 C66.48623476 768.99066437 62.747029 773.97786502 58.97265625 778.93870544 C58.17601562 779.98929138 57.379375 781.03987732 56.55859375 782.12229919 C54.26874513 784.90022312 53.40537595 785.35093201 49.91015625 786.00120544 C43.68350964 785.06133426 39.9395197 779.09442061 36.30859375 774.25901794 C35.19101433 772.71879513 34.07924431 771.17434399 32.97265625 769.62620544 C31.74089042 767.92864166 30.50778979 766.23204571 29.2734375 764.53636169 C28.65807129 763.68960876 28.04270508 762.84285583 27.40869141 761.97044373 C24.7121228 758.29383347 21.94211013 754.67590741 19.16015625 751.06370544 C14.49132354 744.99173382 9.87240989 738.88504616 5.28515625 732.75120544 C-2.54620507 722.28514465 -10.46827279 711.88950811 -18.40234375 701.50120544 C-27.04304555 690.1876911 -35.65287915 678.85363661 -44.18212891 667.45579529 C-48.30906415 661.94555425 -52.47884718 656.47278254 -56.6875 651.02464294 C-65.49034261 639.61919136 -74.19805898 628.13950397 -82.82373047 616.59959412 C-86.98367434 611.04159051 -91.19021517 605.51972728 -95.40234375 600.00120544 C-100.57675872 593.22194373 -105.72406313 586.42425854 -110.82861328 579.5922699 C-114.94129208 574.09606004 -119.10809021 568.64206527 -123.27734375 563.18870544 C-130.24653503 554.06738653 -137.10475456 544.86840905 -143.85522461 535.58396912 C-144.91397346 534.1586596 -145.99972916 532.75312668 -147.10766602 531.3657074 C-152.23188966 524.8965551 -152.23188966 524.8965551 -152.08984375 520.31370544 C-152.09371094 519.51577576 -152.09757812 518.71784607 -152.1015625 517.89573669 C-151.07028748 514.36405184 -149.58335389 512.2777606 -146.40234375 510.50120544 C-141.93567933 509.75233953 -137.50202044 509.87066225 -132.9831543 509.93357849 C-131.60312451 509.9349896 -130.22309096 509.93419576 -128.84306335 509.93136597 C-125.10347916 509.9299328 -121.3646987 509.95930527 -117.62530112 509.99423575 C-113.71490806 510.02551644 -109.80449607 510.02843132 -105.89399719 510.03436279 C-98.49204905 510.04989629 -91.09047065 510.09091778 -83.68868524 510.14111024 C-75.26072874 510.19701931 -66.83275448 510.22449409 -58.40465868 510.24958742 C-41.07033992 510.30183431 -23.73638094 510.38976667 -6.40234375 510.50120544 C-6.42969101 509.61806168 -6.45703827 508.73491791 -6.48521423 507.82501221 C-7.58569402 470.87107754 -7.75324402 433.90758292 -7.95016146 396.94038248 C-7.96488781 394.18044729 -7.9798487 391.42051345 -7.99483871 388.66057968 C-8.17328854 355.60761183 -8.29922769 322.55448814 -8.40234375 289.50120544 C-8.40451731 288.80593962 -8.40669087 288.1106738 -8.4089303 287.39433932 C-8.53572846 246.74850344 -8.63102736 206.10268486 -8.67716122 165.45667362 C-8.68090261 162.18763286 -8.68466855 158.91859212 -8.68844604 155.64955139 C-8.68936779 154.84154163 -8.69028954 154.03353186 -8.69123922 153.20103695 C-8.70548654 140.93691865 -8.73067285 128.67285461 -8.76150513 116.4087677 C-8.79686582 102.32340285 -8.81790821 88.23809828 -8.8202709 74.15268755 C-8.8220201 66.14092538 -8.83497524 58.1293568 -8.86320228 50.11764329 C-8.883201 44.08111142 -8.88223385 38.04477578 -8.87303245 32.00820982 C-8.87255855 29.54537026 -8.87895015 27.0825186 -8.89263356 24.619717 C-8.91018122 21.27863738 -8.90333315 17.93849028 -8.89009094 14.59741211 C-8.90106001 13.62226603 -8.91202908 12.64711995 -8.92333055 11.64242399 C-8.86105576 5.18056641 -8.86105576 5.18056641 -6.64700603 1.90151787 C-4.16808933 0.35506792 -2.89768715 0.0008 0 0 Z " fill="#DD040A" transform="translate(463.40234375,111.49879455566406)"/>
<path d="M0 0 C0.66 0 1.32 0 2 0 C2 163.35 2 326.7 2 495 C1.34 494.67 0.68 494.34 0 494 C0.00037972 493.32874248 0.00075944 492.65748495 0.00115067 491.96588629 C0.02382012 451.65206132 0.04083003 411.3382372 0.05106533 371.02440707 C0.05231516 366.11986837 0.05360957 361.21532969 0.05493164 356.31079102 C0.05532511 354.84696019 0.05532511 354.84696019 0.05572652 353.35355703 C0.05974548 338.76768524 0.06676217 324.18181696 0.07543945 309.59594727 C0.08869111 287.04703808 0.09652719 264.49813189 0.09765625 241.94921875 C0.09775758 240.57368759 0.09775758 240.57368759 0.09786096 239.17036793 C0.10119291 189.28889349 0.00642347 139.41434942 -0.68589783 89.53666687 C-0.73356865 86.05245106 -0.78040595 82.56822574 -0.82617188 79.08398438 C-0.83689736 78.26822913 -0.84762284 77.45247389 -0.85867333 76.6119988 C-1.18095985 51.07148857 -0.69824844 25.53119287 0 0 Z " fill="#D20201" transform="translate(566,128)"/>
<path d="M0 0 C0 0.33 0 0.66 0 1 C-0.79291443 1.02283554 -1.58582886 1.04567108 -2.402771 1.06919861 C-9.87746348 1.28524585 -17.35201435 1.50550553 -24.82644272 1.73049068 C-28.66906217 1.84600749 -32.51171543 1.95989841 -36.35449219 2.07006836 C-40.0633973 2.17646025 -43.77215239 2.28712985 -47.48084259 2.40075874 C-48.89536287 2.44334656 -50.30993033 2.48439627 -51.72454071 2.5238781 C-53.70677856 2.57946607 -55.68884569 2.64104397 -57.67089844 2.70288086 C-58.79896912 2.73619003 -59.92703979 2.76949921 -61.08929443 2.80381775 C-63.5463862 2.96942632 -65.65122452 3.29521993 -68 4 C-68 3.34 -68 2.68 -68 2 C-74.6 2 -81.2 2 -88 2 C-88 2.66 -88 3.32 -88 4 C-88.66 3.67 -89.32 3.34 -90 3 C-91.38817673 2.88273341 -92.78148714 2.82318594 -94.17431641 2.79467773 C-95.46542831 2.7647599 -95.46542831 2.7647599 -96.78262329 2.73423767 C-97.71287323 2.71752518 -98.64312317 2.70081268 -99.6015625 2.68359375 C-100.55316254 2.66281265 -101.50476257 2.64203156 -102.48519897 2.62062073 C-105.53172432 2.55511867 -108.57833743 2.4962372 -111.625 2.4375 C-113.68750916 2.39431541 -115.75000937 2.35070114 -117.8125 2.30664062 C-122.87490954 2.1994366 -127.93740755 2.09817098 -133 2 C-133 1.67 -133 1.34 -133 1 C-120.3959115 0.82724709 -107.7917457 0.66087291 -95.1875 0.5 C-93.79208355 0.48218412 -93.79208355 0.48218412 -92.36847687 0.46400833 C-61.57697882 0.0729322 -30.7942706 -0.1445636 0 0 Z " fill="#EA0B1A" transform="translate(457,622)"/>
<path d="M0 0 C0.33 0 0.66 0 1 0 C1.3396019 1.87387477 1.67138691 3.74916697 2 5.625 C2.185625 6.66914062 2.37125 7.71328125 2.5625 8.7890625 C3.07974954 12.58530469 3.48487084 16.2760148 2.4375 20 C1.8247449 22.80116617 2.50292017 25.20392598 3 28 C2.67 28.33 2.34 28.66 2 29 C1.90022976 30.89111673 1.86919328 32.78594186 1.8671875 34.6796875 C1.86589844 35.83597656 1.86460937 36.99226562 1.86328125 38.18359375 C1.86714844 39.40175781 1.87101562 40.61992188 1.875 41.875 C1.87113281 43.08542969 1.86726563 44.29585937 1.86328125 45.54296875 C1.86457031 46.70183594 1.86585938 47.86070312 1.8671875 49.0546875 C1.86831543 50.12187012 1.86944336 51.18905273 1.87060547 52.28857422 C1.88205577 55.0972452 1.88205577 55.0972452 3 58 C2.34 58 1.68 58 1 58 C1.33 59.65 1.66 61.3 2 63 C1.01 62.67 0.02 62.34 -1 62 C-0.67 41.54 -0.34 21.08 0 0 Z " fill="#E30616" transform="translate(458,559)"/>
<path d="M0 0 C0.88218201 0.02785583 1.76436401 0.05571167 2.67327881 0.08441162 C5.48637528 0.17766034 8.29741481 0.29938613 11.109375 0.421875 C13.01816283 0.49016158 14.9270181 0.55658996 16.8359375 0.62109375 C21.51147211 0.78314854 26.18536476 0.97074709 30.859375 1.171875 C30.859375 1.501875 30.859375 1.831875 30.859375 2.171875 C13.534375 2.666875 13.534375 2.666875 -4.140625 3.171875 C-4.470625 3.831875 -4.800625 4.491875 -5.140625 5.171875 C-6.790625 5.501875 -8.440625 5.831875 -10.140625 6.171875 C-10.470625 12.111875 -10.800625 18.051875 -11.140625 24.171875 C-11.470625 24.171875 -11.800625 24.171875 -12.140625 24.171875 C-12.42515545 20.92393304 -12.66215567 17.67420309 -12.890625 14.421875 C-12.97183594 13.50148438 -13.05304688 12.58109375 -13.13671875 11.6328125 C-13.19472656 10.74335937 -13.25273437 9.85390625 -13.3125 8.9375 C-13.3753418 8.12055664 -13.43818359 7.30361328 -13.50292969 6.46191406 C-13.140625 4.171875 -13.140625 4.171875 -11.70117188 1.88476562 C-7.86057538 -0.68442059 -4.50679645 -0.22430384 0 0 Z " fill="#E10618" transform="translate(468.140625,111.828125)"/>
<path d="M0 0 C0.66 0.33 1.32 0.66 2 1 C2 2.32 2 3.64 2 5 C2.66 5 3.32 5 4 5 C4 5.99 4 6.98 4 8 C6.31 8 8.62 8 11 8 C10.979375 8.78375 10.95875 9.5675 10.9375 10.375 C10.81315937 12.98114961 10.81315937 12.98114961 12 15 C11.01 15 10.02 15 9 15 C8.67 15.66 8.34 16.32 8 17 C6.67683464 15.27898082 5.36685476 13.54781907 4.0625 11.8125 C3.33160156 10.84957031 2.60070312 9.88664063 1.84765625 8.89453125 C0.06703807 6.10502159 -0.72688307 4.2715921 -1 1 C-0.67 0.67 -0.34 0.34 0 0 Z " fill="#DF0A14" transform="translate(470,840)"/>
<path d="M0 0 C0.99 0.33 1.98 0.66 3 1 C2.67 2.65 2.34 4.3 2 6 C2.99 6 3.98 6 5 6 C5.33 7.32 5.66 8.64 6 10 C7.32 10.33 8.64 10.66 10 11 C10.66 13.31 11.32 15.62 12 18 C11.34 18.33 10.68 18.66 10 19 C3.565 10.585 3.565 10.585 -3 2 C-2.01 1.34 -1.02 0.68 0 0 Z " fill="#E20E15" transform="translate(375,715)"/>
<path d="M0 0 C2.97 0.495 2.97 0.495 6 1 C6.103125 1.639375 6.20625 2.27875 6.3125 2.9375 C6.539375 3.618125 6.76625 4.29875 7 5 C7.99 5.33 8.98 5.66 10 6 C9.67 7.65 9.34 9.3 9 11 C8.01 11.33 7.02 11.66 6 12 C4.98829382 10.75945552 3.99102203 9.5071298 3 8.25 C2.443125 7.55390625 1.88625 6.8578125 1.3125 6.140625 C0 4 0 4 0 0 Z " fill="#DF0B16" transform="translate(497,878)"/>
<path d="M0 0 C0 0.99 0 1.98 0 3 C0.99 3.66 1.98 4.32 3 5 C3.1875 8.625 3.1875 8.625 3 12 C-2.80205656 6.35475578 -2.80205656 6.35475578 -5 3 C-5 2.34 -5 1.68 -5 1 C-2 0 -2 0 0 0 Z " fill="#E00D14" transform="translate(349,677)"/>
<path d="M0 0 C0.99 0.66 1.98 1.32 3 2 C2.38801624 5.43950364 1.07941153 7.51564485 -1.0625 10.25 C-1.61035156 10.95640625 -2.15820312 11.6628125 -2.72265625 12.390625 C-3.14417969 12.92171875 -3.56570313 13.4528125 -4 14 C-5.40253926 9.79238221 -3.90602531 7.88264416 -2 4 C-1.34 3.34 -0.68 2.68 0 2 C0 1.34 0 0.68 0 0 Z " fill="#DF0C11" transform="translate(554,840)"/>
<path d="M0 0 C1.98 0.99 3.96 1.98 6 3 C6.33 2.01 6.66 1.02 7 0 C7.625 2.3125 7.625 2.3125 8 5 C7.01 6.485 7.01 6.485 6 8 C2.17053157 6.54744301 0.87949705 4.57104439 -1 1 C-0.67 0.67 -0.34 0.34 0 0 Z " fill="#E10D16" transform="translate(401,752)"/>
<path d="M0 0 C0.66 0.66 1.32 1.32 2 2 C1.80688882 4.8966677 0.97235629 6.03210237 -0.9375 8.25 C-3 10 -3 10 -5 10 C-5 8.68 -5 7.36 -5 6 C-4.34 5.67 -3.68 5.34 -3 5 C-1.9590934 3.35857037 -0.95495674 1.69287785 0 0 Z " fill="#DE0D17" transform="translate(537,864)"/>
<path d="M0 0 C0.66 0.66 1.32 1.32 2 2 C2.99 1.34 3.98 0.68 5 0 C4.43454163 3.95820859 3.19097652 6.6659053 1 10 C-0.76462683 6.91190305 -1 5.76687864 -1 2 C-0.67 1.34 -0.34 0.68 0 0 Z " fill="#DF0A14" transform="translate(494,868)"/>
<path d="M0 0 C0.66 0.99 1.32 1.98 2 3 C-3.14285714 8.57142857 -3.14285714 8.57142857 -7 9 C-6.6875 7.0625 -6.6875 7.0625 -6 5 C-5.01 4.67 -4.02 4.34 -3 4 C-3 3.01 -3 2.02 -3 1 C-2.01 0.67 -1.02 0.34 0 0 Z " fill="#DF0D15" transform="translate(692,659)"/>
<path d="M0 0 C3.33523252 1.38009621 5.18607951 2.84950652 7 6 C6.67 6.99 6.34 7.98 6 9 C5.34 9 4.68 9 4 9 C2.7109375 7.25 2.7109375 7.25 1.375 5 C0.92898438 4.2575 0.48296875 3.515 0.0234375 2.75 C-0.31429688 2.1725 -0.65203125 1.595 -1 1 C-0.67 0.67 -0.34 0.34 0 0 Z " fill="#DD0B12" transform="translate(313,635)"/>
<path d="M0 0 C0.99 0.66 1.98 1.32 3 2 C2.01 4.31 1.02 6.62 0 9 C-0.99 9 -1.98 9 -3 9 C-2.44271087 5.65626525 -1.64826111 2.96687001 0 0 Z " fill="#DF0E18" transform="translate(585,799)"/>
<path d="M0 0 C3.67230705 3.07999946 4.56802365 5.2482602 5 10 C4.01 10.495 4.01 10.495 3 11 C0.39665076 8.28817788 0.00543309 7.10866187 -0.1875 3.25 C-0.125625 2.1775 -0.06375 1.105 0 0 Z " fill="#E00A12" transform="translate(335,661)"/>
<path d="M0 0 C0.66 0.66 1.32 1.32 2 2 C1.19185349 3.33597652 0.37836819 4.668725 -0.4375 6 C-0.88996094 6.7425 -1.34242188 7.485 -1.80859375 8.25 C-2.20175781 8.8275 -2.59492187 9.405 -3 10 C-3.33 10 -3.66 10 -4 10 C-3.38461538 3.47692308 -3.38461538 3.47692308 -1.4375 1.0625 C-0.7259375 0.5365625 -0.7259375 0.5365625 0 0 Z " fill="#D91015" transform="translate(711,633)"/>
<path d="M0 0 C0.66 0.66 1.32 1.32 2 2 C1.67 2.66 1.34 3.32 1 4 C2.32 4.33 3.64 4.66 5 5 C3.68 5.99 2.36 6.98 1 8 C-0.5625 6.1875 -0.5625 6.1875 -2 4 C-1 1 -1 1 0 0 Z " fill="#E11117" transform="translate(483,857)"/>
<path d="M0 0 C0.66 0 1.32 0 2 0 C2 0.99 2 1.98 2 3 C3.32 2.34 4.64 1.68 6 1 C5.34 3.31 4.68 5.62 4 8 C2.35 6.35 0.7 4.7 -1 3 C-0.67 2.01 -0.34 1.02 0 0 Z " fill="#E00C14" transform="translate(426,784)"/>
<path d="M0 0 C0.66 0.66 1.32 1.32 2 2 C1.625 4.125 1.625 4.125 1 6 C-1.97 5.505 -1.97 5.505 -5 5 C-4.67 4.01 -4.34 3.02 -4 2 C-2.68 2 -1.36 2 0 2 C0 1.34 0 0.68 0 0 Z " fill="#DE0C16" transform="translate(615,760)"/>
<path d="M0 0 C0.33 1.32 0.66 2.64 1 4 C0.34 4 -0.32 4 -1 4 C-1.0825 4.61875 -1.165 5.2375 -1.25 5.875 C-2 8 -2 8 -4.0625 9.25 C-4.701875 9.4975 -5.34125 9.745 -6 10 C-4.34832443 6.4213696 -2.21713508 3.25179812 0 0 Z " fill="#F6EAEA" transform="translate(599,787)"/>
<path d="M0 0 C4.29 0 8.58 0 13 0 C12.67 0.99 12.34 1.98 12 3 C11.30132813 2.9278125 10.60265625 2.855625 9.8828125 2.78125 C8.97273437 2.6884375 8.06265625 2.595625 7.125 2.5 C6.22007812 2.4071875 5.31515625 2.314375 4.3828125 2.21875 C2.06686789 1.96952705 2.06686789 1.96952705 0 2 C0 1.34 0 0.68 0 0 Z " fill="#E10616" transform="translate(572,624)"/>
<path d="M0 0 C1.9375 0.6875 1.9375 0.6875 4 2 C4.75 4.625 4.75 4.625 5 7 C3.68 6.67 2.36 6.34 1 6 C0.67 4.02 0.34 2.04 0 0 Z " fill="#E00C15" transform="translate(440,802)"/>
<path d="M0 0 C0.66 0 1.32 0 2 0 C2.33 0.99 2.66 1.98 3 3 C1.68 4.32 0.36 5.64 -1 7 C-1.625 5.1875 -1.625 5.1875 -2 3 C-1.34 2.01 -0.68 1.02 0 0 Z " fill="#DC0F16" transform="translate(625,747)"/>
<path d="M0 0 C1.0625 1.8125 1.0625 1.8125 2 4 C1.67 4.99 1.34 5.98 1 7 C-0.32 6.67 -1.64 6.34 -3 6 C-1.125 1.125 -1.125 1.125 0 0 Z " fill="#DE0B12" transform="translate(662,696)"/>
<path d="M0 0 C2.31 1.98 4.62 3.96 7 6 C6.01 6.33 5.02 6.66 4 7 C3.34 6.34 2.68 5.68 2 5 C1.01 4.34 0.02 3.68 -1 3 C-0.67 2.01 -0.34 1.02 0 0 Z " fill="#F7E9EA" transform="translate(503,890)"/>
<path d="M0 0 C1.65 0.33 3.3 0.66 5 1 C4.34 2.32 3.68 3.64 3 5 C1.68 4.67 0.36 4.34 -1 4 C-0.67 2.68 -0.34 1.36 0 0 Z " fill="#E00A13" transform="translate(361,697)"/>
<path d="M0 0 C2.31 0 4.62 0 7 0 C6.34 1.32 5.68 2.64 5 4 C1.125 2.25 1.125 2.25 0 0 Z " fill="#E00416" transform="translate(433,624)"/>
<path d="M0 0 C0.99 0 1.98 0 3 0 C3 0.66 3 1.32 3 2 C3.66 2 4.32 2 5 2 C5.33 2.99 5.66 3.98 6 5 C5.01 5.33 4.02 5.66 3 6 C0 2.25 0 2.25 0 0 Z " fill="#E01015" transform="translate(419,777)"/>
</svg>
