<svg width="22" height="22" viewBox="0 0 22 22" fill="none" xmlns="http://www.w3.org/2000/svg">
<path d="M11.0002 21.2916C9.58912 21.2916 8.25752 21.0212 7.00537 20.4802C5.75322 19.9393 4.66122 19.2028 3.72937 18.2708C2.79734 17.3389 2.06086 16.2469 1.51991 14.9948C0.978969 13.7426 0.708496 12.411 0.708496 11C0.708496 9.57774 0.978969 8.24335 1.51991 6.99679C2.06086 5.75024 2.79734 4.66103 3.72937 3.72919C4.66122 2.79716 5.75322 2.06067 7.00537 1.51973C8.25752 0.978786 9.58912 0.708313 11.0002 0.708313C12.4224 0.708313 13.7568 0.978786 15.0034 1.51973C16.2499 2.06067 17.3391 2.79716 18.271 3.72919C19.203 4.66103 19.9395 5.75024 20.4804 6.99679C21.0214 8.24335 21.2918 9.57774 21.2918 11C21.2918 12.411 21.0214 13.7426 20.4804 14.9948C19.9395 16.2469 19.203 17.3389 18.271 18.2708C17.3391 19.2028 16.2499 19.9393 15.0034 20.4802C13.7568 21.0212 12.4224 21.2916 11.0002 21.2916ZM11.0002 19.6436C11.553 18.9104 12.0183 18.1708 12.396 17.425C12.7738 16.6791 13.0814 15.8638 13.319 14.9791H8.68129C8.9328 15.8916 9.24399 16.7208 9.61485 17.4667C9.98553 18.2125 10.4473 18.9382 11.0002 19.6436ZM8.90229 19.3457C8.48701 18.7499 8.11407 18.0725 7.78348 17.3136C7.45288 16.5546 7.19595 15.7764 7.01268 14.9791H3.33775C3.90993 16.1041 4.67729 17.0493 5.63983 17.8147C6.60237 18.5799 7.68986 19.0902 8.90229 19.3457ZM13.098 19.3457C14.3105 19.0902 15.398 18.5799 16.3605 17.8147C17.323 17.0493 18.0904 16.1041 18.6626 14.9791H14.9876C14.7695 15.7833 14.4952 16.5649 14.1646 17.3239C13.8342 18.083 13.4787 18.7569 13.098 19.3457ZM2.65633 13.3541H6.68362C6.61555 12.9514 6.56617 12.5566 6.53548 12.1697C6.50496 11.783 6.4897 11.393 6.4897 11C6.4897 10.6069 6.50496 10.217 6.53548 9.83025C6.56617 9.44332 6.61555 9.04854 6.68362 8.6459H2.65633C2.55215 9.01387 2.47234 9.39647 2.41691 9.79369C2.3613 10.1909 2.3335 10.593 2.3335 11C2.3335 11.407 2.3613 11.8091 2.41691 12.2063C2.47234 12.6035 2.55215 12.9861 2.65633 13.3541ZM8.30835 13.3541H13.692C13.7599 12.9514 13.8092 12.5602 13.8398 12.1803C13.8704 11.8004 13.8856 11.407 13.8856 11C13.8856 10.593 13.8704 10.1996 13.8398 9.81969C13.8092 9.4398 13.7599 9.04854 13.692 8.6459H8.30835C8.24046 9.04854 8.19117 9.4398 8.16048 9.81969C8.12996 10.1996 8.1147 10.593 8.1147 11C8.1147 11.407 8.12996 11.8004 8.16048 12.1803C8.19117 12.5602 8.24046 12.9514 8.30835 13.3541ZM15.3167 13.3541H19.344C19.4482 12.9861 19.528 12.6035 19.5834 12.2063C19.639 11.8091 19.6668 11.407 19.6668 11C19.6668 10.593 19.639 10.1909 19.5834 9.79369C19.528 9.39647 19.4482 9.01387 19.344 8.6459H15.3167C15.3848 9.04854 15.4342 9.44332 15.4648 9.83025C15.4954 10.217 15.5106 10.6069 15.5106 11C15.5106 11.393 15.4954 11.783 15.4648 12.1697C15.4342 12.5566 15.3848 12.9514 15.3167 13.3541ZM14.9876 7.0209H18.6626C18.0835 5.88195 17.3214 4.93674 16.3762 4.18527C15.431 3.43398 14.3383 2.92012 13.098 2.64369C13.5133 3.27419 13.8827 3.96382 14.2063 4.71258C14.53 5.46117 14.7905 6.23061 14.9876 7.0209ZM8.68129 7.0209H13.319C13.0675 6.11523 12.7512 5.28079 12.37 4.51758C11.9887 3.75438 11.5321 3.03396 11.0002 2.35633C10.4682 3.03396 10.0116 3.75438 9.63029 4.51758C9.24914 5.28079 8.9328 6.11523 8.68129 7.0209ZM3.33775 7.0209H7.01268C7.20985 6.23061 7.4703 5.46117 7.79404 4.71258C8.11759 3.96382 8.48701 3.27419 8.90229 2.64369C7.65501 2.92012 6.56057 3.43579 5.61898 4.19069C4.6772 4.94541 3.91679 5.88881 3.33775 7.0209Z" fill="white"/>
</svg>
