<svg width="14" height="16" viewBox="0 0 14 16" fill="none" xmlns="http://www.w3.org/2000/svg">
<path d="M7.00142 7.88772C7.416 7.88772 7.77045 7.74008 8.06475 7.4448C8.3592 7.14952 8.50642 6.79459 8.50642 6.38001C8.50642 5.96543 8.35878 5.61091 8.0635 5.31647C7.76822 5.02216 7.41322 4.87501 6.9985 4.87501C6.58392 4.87501 6.22948 5.02265 5.93517 5.31793C5.64073 5.6132 5.4935 5.9682 5.4935 6.38293C5.4935 6.79751 5.64114 7.15196 5.93642 7.44626C6.2317 7.74057 6.5867 7.88772 7.00142 7.88772ZM6.99996 14.2613C8.63024 12.8018 9.87781 11.402 10.7427 10.0617C11.6075 8.7214 12.04 7.54751 12.04 6.54001C12.04 5.02084 11.5573 3.77196 10.592 2.79334C9.62677 1.81473 8.42941 1.32543 6.99996 1.32543C5.57052 1.32543 4.37316 1.81473 3.40788 2.79334C2.4426 3.77196 1.95996 5.02084 1.95996 6.54001C1.95996 7.54751 2.39239 8.7214 3.25725 10.0617C4.12211 11.402 5.36968 12.8018 6.99996 14.2613ZM6.99996 15.9246C4.90274 14.1074 3.3301 12.4162 2.28204 10.8511C1.23399 9.28577 0.709961 7.84876 0.709961 6.54001C0.709961 4.61695 1.33197 3.06008 2.576 1.86938C3.82017 0.67869 5.29482 0.0833435 6.99996 0.0833435C8.7051 0.0833435 10.1798 0.67869 11.4239 1.86938C12.6679 3.06008 13.29 4.61695 13.29 6.54001C13.29 7.84876 12.7659 9.28577 11.7179 10.8511C10.6698 12.4162 9.09718 14.1074 6.99996 15.9246Z" fill="#1C1B1F"/>
</svg>
