<svg width="17" height="16" viewBox="0 0 17 16" fill="none" xmlns="http://www.w3.org/2000/svg">
<path d="M7.06812 12.8767C8.45435 12.8767 9.73267 12.4285 10.7786 11.6814L14.7131 15.616C14.8958 15.7986 15.1365 15.8899 15.3938 15.8899C15.9333 15.8899 16.3152 15.4749 16.3152 14.9436C16.3152 14.6946 16.2322 14.4539 16.0496 14.2795L12.1399 10.3616C12.9617 9.28247 13.4514 7.94604 13.4514 6.49341C13.4514 2.98218 10.5793 0.110107 7.06812 0.110107C3.56519 0.110107 0.684814 2.97388 0.684814 6.49341C0.684814 10.0046 3.55688 12.8767 7.06812 12.8767ZM7.06812 11.4988C4.32886 11.4988 2.06274 9.23267 2.06274 6.49341C2.06274 3.75415 4.32886 1.48804 7.06812 1.48804C9.80737 1.48804 12.0735 3.75415 12.0735 6.49341C12.0735 9.23267 9.80737 11.4988 7.06812 11.4988Z" fill="#3C3C43"/>
</svg>
