<svg width="13" height="18" viewBox="0 0 13 18" fill="none" xmlns="http://www.w3.org/2000/svg">
<path d="M2.08995 17.75C1.6744 17.75 1.3194 17.6028 1.02495 17.3085C0.730649 17.0141 0.583496 16.6591 0.583496 16.2435V1.75646C0.583496 1.33549 0.729329 0.979167 1.021 0.6875C1.31266 0.395833 1.66898 0.25 2.08995 0.25H9.94246C10.358 0.25 10.7129 0.397153 11.0072 0.691458C11.3017 0.985903 11.4489 1.3409 11.4489 1.75646V4.38792C11.6775 4.44764 11.8682 4.56701 12.021 4.74604C12.1738 4.92493 12.2502 5.13299 12.2502 5.37021V6.94063C12.2502 7.17785 12.1738 7.38597 12.021 7.565C11.8682 7.74389 11.6775 7.86326 11.4489 7.92313V16.2435C11.4489 16.6591 11.3017 17.0141 11.0072 17.3085C10.7129 17.6028 10.358 17.75 9.94246 17.75H2.08995ZM2.08995 16.5H9.94246C10.0172 16.5 10.0786 16.476 10.1268 16.4279C10.1749 16.3799 10.1989 16.3184 10.1989 16.2435V1.75646C10.1989 1.6816 10.1749 1.62014 10.1268 1.57208C10.0786 1.52403 10.0172 1.5 9.94246 1.5H2.08995C2.01509 1.5 1.95363 1.52403 1.90558 1.57208C1.85752 1.62014 1.8335 1.6816 1.8335 1.75646V16.2435C1.8335 16.3184 1.85752 16.3799 1.90558 16.4279C1.95363 16.476 2.01509 16.5 2.08995 16.5ZM6.0162 4.12813C6.22565 4.12813 6.40086 4.05764 6.54183 3.91667C6.6828 3.77569 6.75329 3.60049 6.75329 3.39104C6.75329 3.1816 6.6828 3.00639 6.54183 2.86542C6.40086 2.72444 6.22565 2.65396 6.0162 2.65396C5.80676 2.65396 5.63155 2.72444 5.49058 2.86542C5.34961 3.00639 5.27912 3.1816 5.27912 3.39104C5.27912 3.60049 5.34961 3.77569 5.49058 3.91667C5.63155 4.05764 5.80676 4.12813 6.0162 4.12813Z" fill="#1C1B1F"/>
</svg>
