<svg width="24" height="25" viewBox="0 0 24 25" fill="none" xmlns="http://www.w3.org/2000/svg">
<path d="M0.269531 9.39188C0.269531 7.54896 0.660885 5.84781 1.44359 4.28844C2.22651 2.72927 3.28307 1.41281 4.61328 0.339062L5.76922 1.79812C4.65547 2.69875 3.77286 3.80292 3.12141 5.11062C2.47016 6.41833 2.14453 7.84542 2.14453 9.39188H0.269531ZM21.8558 9.39188C21.8558 7.84542 21.5302 6.41635 20.8789 5.10469C20.2274 3.79302 19.3448 2.68677 18.2311 1.78594L19.387 0.339062C20.7172 1.41281 21.7738 2.72927 22.5567 4.28844C23.3394 5.84781 23.7308 7.54896 23.7308 9.39188H21.8558ZM2.62516 20.6056V18.7309H4.88484V9.40375C4.88484 7.72271 5.4037 6.23635 6.44141 4.94469C7.47891 3.65302 8.81099 2.82687 10.4377 2.46625V1.6875C10.4377 1.25479 10.5899 0.88625 10.8945 0.581875C11.1989 0.277292 11.5674 0.125 12.0002 0.125C12.4329 0.125 12.8014 0.277292 13.1058 0.581875C13.4104 0.88625 13.5627 1.25479 13.5627 1.6875V2.46625C15.1893 2.82687 16.5214 3.65302 17.5589 4.94469C18.5966 6.23635 19.1155 7.72271 19.1155 9.40375V18.7309H21.3752V20.6056H2.62516ZM12.0002 24.1153C11.3768 24.1153 10.8444 23.8946 10.403 23.4531C9.9613 23.0117 9.74047 22.4792 9.74047 21.8556H14.2598C14.2598 22.4792 14.039 23.0117 13.5973 23.4531C13.1559 23.8946 12.6235 24.1153 12.0002 24.1153ZM6.75984 18.7309H17.2405V9.40375C17.2405 7.95667 16.7289 6.72156 15.7058 5.69844C14.6824 4.6751 13.4472 4.16344 12.0002 4.16344C10.5531 4.16344 9.31787 4.6751 8.29453 5.69844C7.27141 6.72156 6.75984 7.95667 6.75984 9.40375V18.7309Z" fill="white"/>
</svg>
