<svg width="18" height="22" viewBox="0 0 18 22" fill="none" xmlns="http://www.w3.org/2000/svg">
<path d="M9 11.8125C8.0111 11.8125 7.17711 11.4729 6.49804 10.7936C5.81879 10.1146 5.47917 9.28059 5.47917 8.29169C5.47917 7.30278 5.81879 6.4688 6.49804 5.78973C7.17711 5.11048 8.0111 4.77085 9 4.77085C9.9889 4.77085 10.8229 5.11048 11.502 5.78973C12.1812 6.4688 12.5208 7.30278 12.5208 8.29169C12.5208 9.28059 12.1812 10.1146 11.502 10.7936C10.8229 11.4729 9.9889 11.8125 9 11.8125ZM9 10.1875C9.53896 10.1875 9.98963 10.0062 10.352 9.64369C10.7146 9.28131 10.8958 8.83065 10.8958 8.29169C10.8958 7.75273 10.7146 7.30206 10.352 6.93969C9.98963 6.57713 9.53896 6.39585 9 6.39585C8.46104 6.39585 8.01038 6.57713 7.648 6.93969C7.28544 7.30206 7.10417 7.75273 7.10417 8.29169C7.10417 8.83065 7.28544 9.28131 7.648 9.64369C8.01038 10.0062 8.46104 10.1875 9 10.1875ZM9 21.2708C6.65693 20.6318 4.71704 19.2527 3.18033 17.1333C1.64344 15.014 0.875 12.6445 0.875 10.025V3.79179L9 0.750061L17.125 3.79179V10.025C17.125 12.6445 16.3566 15.014 14.8197 17.1333C13.283 19.2527 11.3431 20.6318 9 21.2708ZM9 2.47906L2.5 4.90627V10.025C2.5 11.0556 2.6476 12.0522 2.94281 13.0148C3.23784 13.9771 3.64788 14.875 4.17294 15.7085C4.90347 15.3362 5.66839 15.0452 6.46771 14.8356C7.26703 14.6258 8.11113 14.5209 9 14.5209C9.88888 14.5209 10.733 14.6258 11.5323 14.8356C12.3316 15.0452 13.0965 15.3362 13.8271 15.7085C14.3521 14.875 14.7622 13.9771 15.0572 13.0148C15.3524 12.0522 15.5 11.0556 15.5 10.025V4.90627L9 2.47906ZM9 16.1459C8.30143 16.1459 7.62958 16.2215 6.98446 16.3728C6.33933 16.5243 5.72996 16.7368 5.15633 17.0104C5.69385 17.6076 6.28517 18.124 6.93029 18.5595C7.57542 18.9948 8.26532 19.3278 9 19.5584C9.73468 19.3278 10.4229 18.9948 11.0646 18.5595C11.7063 18.124 12.2959 17.6076 12.8334 17.0104C12.2598 16.7368 11.6521 16.5243 11.0104 16.3728C10.3687 16.2215 9.69857 16.1459 9 16.1459Z" fill="white"/>
</svg>
