<svg width="35" height="35" viewBox="0 0 35 35" fill="none" xmlns="http://www.w3.org/2000/svg">
<circle cx="17.5" cy="17.5" r="17.5" fill="#FB7805"/>
<mask id="mask0_182_1172" style="mask-type:alpha" maskUnits="userSpaceOnUse" x="6" y="6" width="24" height="24">
<rect x="6" y="6" width="24" height="24" fill="#D9D9D9"/>
</mask>
<g mask="url(#mask0_182_1172)">
<path d="M18.4998 18.75L23.2883 15.5L18.4998 12.25V18.75ZM22.8536 24.4615H24.3383C24.337 24.7025 24.2556 24.9083 24.0941 25.0788C23.9326 25.2493 23.7293 25.3551 23.4843 25.3962L12.1806 26.8173C11.7331 26.8749 11.3334 26.7682 10.9816 26.497C10.6296 26.226 10.4266 25.8668 10.3728 25.4193L9.14405 15.7057C9.09022 15.2582 9.20114 14.8532 9.4768 14.4905C9.75247 14.1277 10.114 13.9257 10.5613 13.8845L11.5383 13.8115V14.8115L10.7153 14.8788C10.5358 14.8916 10.3947 14.9653 10.2921 15.1C10.1896 15.2347 10.1511 15.3917 10.1768 15.5712L11.3728 25.2845C11.3985 25.464 11.4754 25.6051 11.6036 25.7078C11.7319 25.8103 11.8858 25.8487 12.0653 25.823L22.8536 24.4615ZM15.1536 22.4615C14.6934 22.4615 14.3091 22.3073 14.0008 21.999C13.6925 21.6907 13.5383 21.3064 13.5383 20.8463V10.6155C13.5383 10.1552 13.6925 9.77083 14.0008 9.4625C14.3091 9.15417 14.6934 9 15.1536 9H25.3843C25.8446 9 26.229 9.15417 26.5373 9.4625C26.8456 9.77083 26.9998 10.1552 26.9998 10.6155V20.8463C26.9998 21.3064 26.8456 21.6907 26.5373 21.999C26.229 22.3073 25.8446 22.4615 25.3843 22.4615H15.1536ZM15.1536 21.4615H25.3843C25.5638 21.4615 25.7113 21.4038 25.8268 21.2885C25.9421 21.1732 25.9998 21.0258 25.9998 20.8463V10.6155C25.9998 10.436 25.9421 10.2885 25.8268 10.173C25.7113 10.0577 25.5638 10 25.3843 10H15.1536C14.9741 10 14.8266 10.0577 14.7113 10.173C14.596 10.2885 14.5383 10.436 14.5383 10.6155V20.8463C14.5383 21.0258 14.596 21.1732 14.7113 21.2885C14.8266 21.4038 14.9741 21.4615 15.1536 21.4615Z" fill="white"/>
</g>
</svg>
