<svg width="36" height="38" viewBox="0 0 36 38" fill="none" xmlns="http://www.w3.org/2000/svg">
<path d="M1 37V32.1351C1 26.2241 5.88017 21.4324 11.9002 21.4324H18.542C23.4088 21.4324 27.6858 18.2646 29.0228 13.67L30.2232 9.54459C30.5219 8.51836 31.4771 7.81081 32.5642 7.81081C34.1481 7.81081 35.3102 9.27233 34.9261 10.7811L31.4488 24.4385C31.0251 26.1027 29.5022 27.2703 27.755 27.2703M8.92741 37V31.1622M24.7822 8.78378C24.7822 13.0827 21.2329 16.5676 16.8548 16.5676C12.4766 16.5676 8.92741 13.0827 8.92741 8.78378C8.92741 4.48492 12.4766 1 16.8548 1C21.2329 1 24.7822 4.48492 24.7822 8.78378Z" stroke="white" stroke-width="2" stroke-linecap="round"/>
</svg>
