<svg width="30" height="30" viewBox="0 0 30 30" fill="none" xmlns="http://www.w3.org/2000/svg">
<mask id="mask0_261_503" style="mask-type:alpha" maskUnits="userSpaceOnUse" x="0" y="0" width="30" height="30">
<rect width="30" height="30" fill="#D9D9D9"/>
</mask>
<g mask="url(#mask0_261_503)">
<path d="M6.63469 25.625C6.01135 25.625 5.47885 25.4043 5.03719 24.9628C4.59573 24.5211 4.375 23.9886 4.375 23.3653V6.63469C4.375 6.01135 4.59573 5.47885 5.03719 5.03719C5.47885 4.59573 6.01135 4.375 6.63469 4.375H23.3653C23.9886 4.375 24.5211 4.59573 24.9628 5.03719C25.4043 5.47885 25.625 6.01135 25.625 6.63469V10.0362H23.75V6.63469C23.75 6.5224 23.714 6.43021 23.6419 6.35813C23.5698 6.28604 23.4776 6.25 23.3653 6.25H6.63469C6.5224 6.25 6.43021 6.28604 6.35813 6.35813C6.28604 6.43021 6.25 6.5224 6.25 6.63469V23.3653C6.25 23.4776 6.28604 23.5698 6.35813 23.6419C6.43021 23.714 6.5224 23.75 6.63469 23.75H23.3653C23.4776 23.75 23.5698 23.714 23.6419 23.6419C23.714 23.5698 23.75 23.4776 23.75 23.3653V19.9637H25.625V23.3653C25.625 23.9886 25.4043 24.5211 24.9628 24.9628C24.5211 25.4043 23.9886 25.625 23.3653 25.625H6.63469ZM16.6347 20.625C16.0114 20.625 15.4789 20.4043 15.0372 19.9628C14.5957 19.5211 14.375 18.9886 14.375 18.3653V11.6347C14.375 11.0114 14.5957 10.4789 15.0372 10.0372C15.4789 9.59573 16.0114 9.375 16.6347 9.375H24.6153C25.2386 9.375 25.7711 9.59573 26.2128 10.0372C26.6543 10.4789 26.875 11.0114 26.875 11.6347V18.3653C26.875 18.9886 26.6543 19.5211 26.2128 19.9628C25.7711 20.4043 25.2386 20.625 24.6153 20.625H16.6347ZM24.6153 18.75C24.7276 18.75 24.8198 18.714 24.8919 18.6419C24.964 18.5698 25 18.4776 25 18.3653V11.6347C25 11.5224 24.964 11.4302 24.8919 11.3581C24.8198 11.286 24.7276 11.25 24.6153 11.25H16.6347C16.5224 11.25 16.4302 11.286 16.3581 11.3581C16.286 11.4302 16.25 11.5224 16.25 11.6347V18.3653C16.25 18.4776 16.286 18.5698 16.3581 18.6419C16.4302 18.714 16.5224 18.75 16.6347 18.75H24.6153ZM20 16.875C20.5208 16.875 20.9635 16.6927 21.3281 16.3281C21.6927 15.9635 21.875 15.5208 21.875 15C21.875 14.4792 21.6927 14.0365 21.3281 13.6719C20.9635 13.3073 20.5208 13.125 20 13.125C19.4792 13.125 19.0365 13.3073 18.6719 13.6719C18.3073 14.0365 18.125 14.4792 18.125 15C18.125 15.5208 18.3073 15.9635 18.6719 16.3281C19.0365 16.6927 19.4792 16.875 20 16.875Z" fill="white"/>
</g>
</svg>
