<svg width="27" height="27" viewBox="0 0 27 27" fill="none" xmlns="http://www.w3.org/2000/svg">
<mask id="mask0_2001_587" style="mask-type:alpha" maskUnits="userSpaceOnUse" x="0" y="0" width="27" height="27">
<path d="M0 0H27V27H0V0Z" fill="#D9D9D9"/>
</mask>
<g mask="url(#mask0_2001_587)">
<path d="M13 17.6587L17.6587 13L13 8.34129L12.0246 9.31667L14.9996 12.2917H8.04167V13.7083H14.9996L12.0246 16.6833L13 17.6587ZM13.0046 25.75C11.2416 25.75 9.58394 25.4154 8.03175 24.7463C6.47979 24.0772 5.12971 23.1691 3.9815 22.022C2.83329 20.875 1.92438 19.5261 1.25477 17.9753C0.584923 16.4248 0.25 14.7679 0.25 13.0046C0.25 11.2416 0.584569 9.58394 1.25371 8.03175C1.92285 6.47979 2.83093 5.12971 3.97796 3.9815C5.12499 2.83329 6.47389 1.92438 8.02467 1.25477C9.57521 0.584923 11.2321 0.25 12.9954 0.25C14.7584 0.25 16.4161 0.58457 17.9683 1.25371C19.5202 1.92285 20.8703 2.83093 22.0185 3.97796C23.1667 5.12499 24.0756 6.47389 24.7452 8.02467C25.4151 9.57521 25.75 11.2321 25.75 12.9954C25.75 14.7584 25.4154 16.4161 24.7463 17.9683C24.0772 19.5202 23.1691 20.8703 22.022 22.0185C20.875 23.1667 19.5261 24.0756 17.9753 24.7452C16.4248 25.4151 14.7679 25.75 13.0046 25.75Z" fill="#FB7805"/>
</g>
</svg>
