<svg width="20" height="20" viewBox="0 0 20 20" fill="none" xmlns="http://www.w3.org/2000/svg">
<path d="M9.99984 19.2084C7.37077 19.2084 5.17873 18.8371 3.42373 18.0947C1.66891 17.3524 0.791504 16.425 0.791504 15.3124V4.58335C0.791504 3.53758 1.69013 2.64419 3.48738 1.90319C5.28463 1.16219 7.45545 0.791687 9.99984 0.791687C12.5442 0.791687 14.715 1.16219 16.5123 1.90319C18.3095 2.64419 19.2082 3.53758 19.2082 4.58335V15.3124C19.2082 16.425 18.3308 17.3524 16.5759 18.0947C14.8209 18.8371 12.6289 19.2084 9.99984 19.2084ZM9.99984 6.70425C11.579 6.70425 13.1689 6.48099 14.7698 6.03448C16.3704 5.58797 17.2978 5.10633 17.552 4.58958C17.3047 4.05911 16.3869 3.5643 14.7987 3.10514C13.2106 2.64617 11.6109 2.41669 9.99984 2.41669C8.39145 2.41669 6.79732 2.63994 5.21746 3.08646C3.6376 3.53297 2.70738 4.02011 2.4268 4.54787C2.70052 5.08954 3.62379 5.58435 5.19661 6.03231C6.76961 6.48027 8.37068 6.70425 9.99984 6.70425ZM9.99984 12.125C10.7513 12.125 11.4826 12.0889 12.1936 12.0166C12.9046 11.9444 13.5841 11.8389 14.2321 11.7C14.88 11.5612 15.4866 11.3889 16.0519 11.1833C16.6172 10.9778 17.1276 10.7452 17.5832 10.4854V6.64169C17.1276 6.90133 16.6172 7.13397 16.0519 7.33962C15.4866 7.5451 14.88 7.71726 14.2321 7.8561C13.5841 7.99513 12.9046 8.10076 12.1936 8.17298C11.4826 8.2452 10.7513 8.28131 9.99984 8.28131C9.23464 8.28131 8.48913 8.2434 7.7633 8.16756C7.03764 8.09191 6.35261 7.98466 5.70821 7.84581C5.06381 7.70696 4.46346 7.53652 3.90717 7.33448C3.35088 7.13226 2.85399 6.90133 2.4165 6.64169V10.4854C2.85399 10.7452 3.35088 10.9761 3.90717 11.1781C4.46346 11.3802 5.06381 11.5506 5.70821 11.6895C6.35261 11.8285 7.03764 11.9358 7.7633 12.0115C8.48913 12.0872 9.23464 12.125 9.99984 12.125ZM9.99984 17.5834C10.879 17.5834 11.7422 17.5254 12.5895 17.4095C13.4367 17.2934 14.2075 17.135 14.9019 16.9344C15.5963 16.7337 16.1821 16.5007 16.6591 16.2354C17.1363 15.9702 17.4443 15.6917 17.5832 15.3999V12.1104C17.1276 12.3702 16.6172 12.6028 16.0519 12.8083C15.4866 13.0139 14.88 13.1862 14.2321 13.325C13.5841 13.4639 12.9046 13.5694 12.1936 13.6416C11.4826 13.7139 10.7513 13.75 9.99984 13.75C9.23464 13.75 8.48913 13.7122 7.7633 13.6365C7.03764 13.5608 6.35261 13.4535 5.70821 13.3145C5.06381 13.1756 4.46346 13.0052 3.90717 12.8031C3.35088 12.6011 2.85399 12.3702 2.4165 12.1104V15.4167C2.55535 15.7153 2.86058 15.9927 3.33219 16.249C3.80362 16.5052 4.38655 16.7337 5.08096 16.9344C5.77556 17.135 6.54924 17.2934 7.402 17.4095C8.25477 17.5254 9.12071 17.5834 9.99984 17.5834Z" fill="white"/>
</svg>
