<svg width="18" height="16" viewBox="0 0 18 16" fill="none" xmlns="http://www.w3.org/2000/svg">
<path d="M9 7.66658C7.95729 7.66658 7.06472 7.29536 6.32227 6.55292C5.57965 5.81029 5.20833 4.91763 5.20833 3.87492C5.20833 2.83221 5.57965 1.93963 6.32227 1.19719C7.06472 0.454565 7.95729 0.083252 9 0.083252C10.0427 0.083252 10.9353 0.454565 11.6777 1.19719C12.4204 1.93963 12.7917 2.83221 12.7917 3.87492C12.7917 4.91763 12.4204 5.81029 11.6777 6.55292C10.9353 7.29536 10.0427 7.66658 9 7.66658ZM0.875 15.9167V13.5082C0.875 12.9777 1.01908 12.4864 1.30725 12.0343C1.59542 11.5822 1.98054 11.2346 2.46262 10.9916C3.53332 10.4667 4.61349 10.073 5.70315 9.8105C6.7928 9.54797 7.89175 9.41671 9 9.41671C10.1083 9.41671 11.2072 9.54797 12.2969 9.8105C13.3865 10.073 14.4667 10.4667 15.5374 10.9916C16.0195 11.2346 16.4046 11.5822 16.6927 12.0343C16.9809 12.4864 17.125 12.9777 17.125 13.5082V15.9167H0.875ZM2.5 14.2917H15.5V13.5082C15.5 13.2888 15.4364 13.0857 15.3093 12.8988C15.1822 12.7121 15.0097 12.5597 14.7918 12.4416C13.8583 11.982 12.9066 11.6337 11.9366 11.3968C10.9665 11.1601 9.98764 11.0417 9 11.0417C8.01236 11.0417 7.03348 11.1601 6.06335 11.3968C5.09341 11.6337 4.1417 11.982 3.20823 12.4416C2.9903 12.5597 2.81778 12.7121 2.69067 12.8988C2.56356 13.0857 2.5 13.2888 2.5 13.5082V14.2917ZM9 6.04158C9.59583 6.04158 10.1059 5.82943 10.5302 5.40513C10.9545 4.98082 11.1667 4.47075 11.1667 3.87492C11.1667 3.27908 10.9545 2.76902 10.5302 2.34471C10.1059 1.9204 9.59583 1.70825 9 1.70825C8.40417 1.70825 7.8941 1.9204 7.46979 2.34471C7.04549 2.76902 6.83333 3.27908 6.83333 3.87492C6.83333 4.47075 7.04549 4.98082 7.46979 5.40513C7.8941 5.82943 8.40417 6.04158 9 6.04158Z" fill="white"/>
</svg>
