<svg width="17" height="17" viewBox="0 0 17 17" fill="none" xmlns="http://www.w3.org/2000/svg">
<mask id="mask0_366_727" style="mask-type:alpha" maskUnits="userSpaceOnUse" x="0" y="0" width="17" height="17">
<rect width="17" height="17" fill="#D9D9D9"/>
</mask>
<g mask="url(#mask0_366_727)">
<circle cx="9" cy="8" r="5" fill="white"/>
<path d="M8.14583 11.6875H8.85417V8.85417H11.6875V8.14583H8.85417V5.3125H8.14583V8.14583H5.3125V8.85417H8.14583V11.6875ZM8.5023 14.875C7.62078 14.875 6.79197 14.7077 6.01587 14.3731C5.2399 14.0386 4.56485 13.5845 3.99075 13.011C3.41665 12.4375 2.96219 11.7631 2.62739 10.9877C2.29246 10.2124 2.125 9.38394 2.125 8.5023C2.125 7.62078 2.29228 6.79197 2.62685 6.01587C2.96142 5.2399 3.41547 4.56485 3.98898 3.99075C4.56249 3.41665 5.23694 2.96219 6.01233 2.62739C6.7876 2.29246 7.61606 2.125 8.4977 2.125C9.37922 2.125 10.208 2.29229 10.9841 2.62685C11.7601 2.96142 12.4351 3.41547 13.0092 3.98898C13.5834 4.56249 14.0378 5.23694 14.3726 6.01233C14.7075 6.7876 14.875 7.61606 14.875 8.4977C14.875 9.37922 14.7077 10.208 14.3731 10.9841C14.0386 11.7601 13.5845 12.4351 13.011 13.0092C12.4375 13.5834 11.7631 14.0378 10.9877 14.3726C10.2124 14.7075 9.38394 14.875 8.5023 14.875Z" fill="#FB7805"/>
</g>
</svg>
