<svg width="16" height="20" viewBox="0 0 16 20" fill="none" xmlns="http://www.w3.org/2000/svg">
<path d="M8.00165 9.86525C8.49915 9.86525 8.92449 9.68808 9.27765 9.33375C9.63099 8.97942 9.80765 8.5535 9.80765 8.056C9.80765 7.5585 9.63049 7.13308 9.27615 6.77975C8.92182 6.42658 8.49582 6.25 7.99815 6.25C7.50065 6.25 7.07532 6.42717 6.72215 6.7815C6.36882 7.13583 6.19215 7.56183 6.19215 8.0595C6.19215 8.557 6.36932 8.98233 6.72365 9.3355C7.07799 9.68867 7.50399 9.86525 8.00165 9.86525ZM7.9999 17.5135C9.95624 15.7622 11.4533 14.0823 12.4912 12.474C13.529 10.8657 14.0479 9.457 14.0479 8.248C14.0479 6.425 13.4687 4.92633 12.3104 3.752C11.1521 2.57767 9.71524 1.9905 7.9999 1.9905C6.28457 1.9905 4.84774 2.57767 3.6894 3.752C2.53107 4.92633 1.9519 6.425 1.9519 8.248C1.9519 9.457 2.47082 10.8657 3.50865 12.474C4.54649 14.0823 6.04357 15.7622 7.9999 17.5135ZM7.9999 19.5095C5.48324 17.3288 3.59607 15.2994 2.3384 13.4212C1.08074 11.5429 0.451904 9.8185 0.451904 8.248C0.451904 5.94033 1.19832 4.07208 2.69115 2.64325C4.18415 1.21442 5.95374 0.5 7.9999 0.5C10.0461 0.5 11.8157 1.21442 13.3087 2.64325C14.8015 4.07208 15.5479 5.94033 15.5479 8.248C15.5479 9.8185 14.9191 11.5429 13.6614 13.4212C12.4037 15.2994 10.5166 17.3288 7.9999 19.5095Z" fill="#FB7805"/>
</svg>
