<svg width="23" height="22" viewBox="0 0 23 22" fill="none" xmlns="http://www.w3.org/2000/svg">
<path d="M2.63469 21.625C2.01135 21.625 1.47885 21.4043 1.03719 20.9628C0.595729 20.5211 0.375 19.9886 0.375 19.3653V2.63469C0.375 2.01135 0.595729 1.47885 1.03719 1.03719C1.47885 0.595729 2.01135 0.375 2.63469 0.375H19.3653C19.9886 0.375 20.5211 0.595729 20.9628 1.03719C21.4043 1.47885 21.625 2.01135 21.625 2.63469V6.03625H19.75V2.63469C19.75 2.5224 19.714 2.43021 19.6419 2.35813C19.5698 2.28604 19.4776 2.25 19.3653 2.25H2.63469C2.5224 2.25 2.43021 2.28604 2.35813 2.35813C2.28604 2.43021 2.25 2.5224 2.25 2.63469V19.3653C2.25 19.4776 2.28604 19.5698 2.35813 19.6419C2.43021 19.714 2.5224 19.75 2.63469 19.75H19.3653C19.4776 19.75 19.5698 19.714 19.6419 19.6419C19.714 19.5698 19.75 19.4776 19.75 19.3653V15.9637H21.625V19.3653C21.625 19.9886 21.4043 20.5211 20.9628 20.9628C20.5211 21.4043 19.9886 21.625 19.3653 21.625H2.63469ZM12.6347 16.625C12.0114 16.625 11.4789 16.4043 11.0372 15.9628C10.5957 15.5211 10.375 14.9886 10.375 14.3653V7.63469C10.375 7.01135 10.5957 6.47885 11.0372 6.03719C11.4789 5.59573 12.0114 5.375 12.6347 5.375H20.6153C21.2386 5.375 21.7711 5.59573 22.2128 6.03719C22.6543 6.47885 22.875 7.01135 22.875 7.63469V14.3653C22.875 14.9886 22.6543 15.5211 22.2128 15.9628C21.7711 16.4043 21.2386 16.625 20.6153 16.625H12.6347ZM20.6153 14.75C20.7276 14.75 20.8198 14.714 20.8919 14.6419C20.964 14.5698 21 14.4776 21 14.3653V7.63469C21 7.5224 20.964 7.43021 20.8919 7.35813C20.8198 7.28604 20.7276 7.25 20.6153 7.25H12.6347C12.5224 7.25 12.4302 7.28604 12.3581 7.35813C12.286 7.43021 12.25 7.5224 12.25 7.63469V14.3653C12.25 14.4776 12.286 14.5698 12.3581 14.6419C12.4302 14.714 12.5224 14.75 12.6347 14.75H20.6153ZM16 12.875C16.5208 12.875 16.9635 12.6927 17.3281 12.3281C17.6927 11.9635 17.875 11.5208 17.875 11C17.875 10.4792 17.6927 10.0365 17.3281 9.67188C16.9635 9.30729 16.5208 9.125 16 9.125C15.4792 9.125 15.0365 9.30729 14.6719 9.67188C14.3073 10.0365 14.125 10.4792 14.125 11C14.125 11.5208 14.3073 11.9635 14.6719 12.3281C15.0365 12.6927 15.4792 12.875 16 12.875Z" fill="white"/>
</svg>
